<svg class="dfig" viewBox="0 0 660 300" role="img" aria-label="Re-cast trace layer with typed reified Case 2 threads, separated provenance, Case 1 references, and version pinning"><defs><marker id="aG-5" markerWidth="9" markerHeight="9" refX="7.5" refY="4" orient="auto"><polygon points="0,0 8,4 0,8" fill="#54626E"/></marker><marker id="aGs-5" markerWidth="9" markerHeight="9" refX="1" refY="4" orient="auto"><polygon points="8,0 0,4 8,8" fill="#54626E"/></marker><marker id="aI-5" markerWidth="9" markerHeight="9" refX="7.5" refY="4" orient="auto"><polygon points="0,0 8,4 0,8" fill="#3B47A0"/></marker><marker id="aT-5" markerWidth="9" markerHeight="9" refX="7.5" refY="4" orient="auto"><polygon points="0,0 8,4 0,8" fill="#0E7C86"/></marker><marker id="aA-5" markerWidth="9" markerHeight="9" refX="7.5" refY="4" orient="auto"><polygon points="0,0 8,4 0,8" fill="#B26A0F"/></marker></defs>
      <g font-family="Consolas, monospace" font-size="9.5" fill="#54626E" text-anchor="middle">
        <text x="76" y="22">engine req set</text><text x="330" y="22">SemanticRelationThread set</text><text x="586" y="22">engine arch set</text>
      </g>
      <g font-family="Consolas, monospace" font-size="11" fill="#141E27" text-anchor="middle">
        <rect x="22" y="34" width="108" height="32" rx="3" fill="#fff" stroke="#54626E" stroke-width="1.4"/><text x="76" y="54">Req 1</text>
        <rect x="22" y="92" width="108" height="32" rx="3" fill="#fff" stroke="#54626E" stroke-width="1.4"/><text x="76" y="112">Req 2</text>
        <rect x="22" y="150" width="108" height="32" rx="3" fill="#fff" stroke="#54626E" stroke-width="1.4"/><text x="76" y="170">Req 3</text>
      </g>
      <g font-family="Consolas, monospace" font-size="10" fill="#3B47A0" text-anchor="middle">
        <rect x="256" y="32" width="148" height="36" rx="3" fill="#E3E5F5" stroke="#3B47A0" stroke-width="1.5"/><text x="330" y="47">trace 1</text><text x="330" y="60" font-size="8.5" fill="#54626E">&#171;allocatedTo&#187;</text>
        <rect x="256" y="90" width="148" height="36" rx="3" fill="#E3E5F5" stroke="#3B47A0" stroke-width="1.5"/><text x="330" y="105">trace 2</text><text x="330" y="118" font-size="8.5" fill="#54626E">&#171;allocatedTo&#187;</text>
        <rect x="256" y="148" width="148" height="36" rx="3" fill="#E3E5F5" stroke="#3B47A0" stroke-width="1.5"/><text x="330" y="163">trace 3</text><text x="330" y="176" font-size="8.5" fill="#54626E">&#171;allocatedTo&#187;</text>
      </g>
      <g font-family="Consolas, monospace" font-size="11" fill="#141E27" text-anchor="middle">
        <rect x="532" y="34" width="108" height="32" rx="3" fill="#fff" stroke="#54626E" stroke-width="1.4"/><text x="586" y="54">arch 1</text>
        <rect x="532" y="121" width="108" height="32" rx="3" fill="#fff" stroke="#54626E" stroke-width="1.4"/><text x="586" y="141">arch 2</text>
      </g>
      <g font-family="Consolas, monospace" font-size="8" fill="#B26A0F" text-anchor="middle">
        <rect x="548" y="66" width="76" height="15" rx="2" fill="#F5E9D6" stroke="#B26A0F" stroke-width=".9"/><text x="586" y="77">pinned @ v1</text>
        <rect x="548" y="153" width="76" height="15" rx="2" fill="#F5E9D6" stroke="#B26A0F" stroke-width=".9"/><text x="586" y="164">pinned @ v1</text>
      </g>
      <g stroke="#3B47A0" stroke-width="1.6" fill="none">
        <line x1="130" y1="50" x2="252" y2="50" marker-end="url(#aI-5)"/>
        <line x1="130" y1="108" x2="252" y2="108" marker-end="url(#aI-5)"/>
        <line x1="130" y1="166" x2="252" y2="166" marker-end="url(#aI-5)"/>
        <line x1="404" y1="50" x2="528" y2="50" marker-end="url(#aI-5)"/>
        <line x1="404" y1="108" x2="528" y2="134" marker-end="url(#aI-5)"/>
        <line x1="404" y1="166" x2="528" y2="140" marker-end="url(#aI-5)"/>
      </g>
      <text x="468" y="92" text-anchor="middle" font-family="Cambria, Georgia, serif" font-size="9" fill="#B26A0F">converge = coverage,</text>
      <text x="468" y="103" text-anchor="middle" font-family="Cambria, Georgia, serif" font-size="9" fill="#B26A0F">not co-reference</text>
      <line x1="486" y1="107" x2="523" y2="132" stroke="#B26A0F" stroke-width="1" marker-end="url(#aA-5)"/>

      <line x1="330" y1="184" x2="330" y2="214" stroke="#54626E" stroke-width="1" stroke-dasharray="3 3"/>
      <rect x="214" y="214" width="232" height="40" rx="3" fill="#F3F5F7" stroke="#54626E" stroke-width="1.2"/>
      <text x="330" y="231" text-anchor="middle" font-family="Consolas, monospace" font-size="9.5" fill="#141E27">ProvenanceRecord (per thread)</text>
      <text x="330" y="245" text-anchor="middle" font-family="Cambria, Georgia, serif" font-size="9" fill="#54626E">commit, agent, tool, wasGeneratedBy</text>

      <line x1="76" y1="182" x2="76" y2="262" stroke="#0E7C86" stroke-width="1.6" stroke-dasharray="5 4" marker-end="url(#aT-5)"/>
      <line x1="586" y1="153" x2="586" y2="262" stroke="#0E7C86" stroke-width="1.6" stroke-dasharray="5 4" marker-end="url(#aT-5)"/>
      <rect x="150" y="262" width="362" height="30" rx="3" fill="#DCEEF0" stroke="#0E7C86" stroke-width="1.3"/>
      <text x="331" y="281" text-anchor="middle" font-family="Cambria, Georgia, serif" font-size="9.5" fill="#0E7C86">process-metadata references = Case 1 co-reference to the same authoritative sets</text>
    </svg>