<svg class="dfig" viewBox="0 0 760 350" role="img" aria-label="A single information exchange across one thread, showing the assertion lane contrasted with the mechanism lane between the same two endpoints"><defs><marker id="aG-a2" markerWidth="9" markerHeight="9" refX="7.5" refY="4" orient="auto"><polygon points="0,0 8,4 0,8" fill="#54626E"/></marker><marker id="aGs-a2" markerWidth="9" markerHeight="9" refX="1" refY="4" orient="auto"><polygon points="8,0 0,4 8,8" fill="#54626E"/></marker><marker id="aI-a2" markerWidth="9" markerHeight="9" refX="7.5" refY="4" orient="auto"><polygon points="0,0 8,4 0,8" fill="#3B47A0"/></marker><marker id="aT-a2" markerWidth="9" markerHeight="9" refX="7.5" refY="4" orient="auto"><polygon points="0,0 8,4 0,8" fill="#0E7C86"/></marker><marker id="aA-a2" markerWidth="9" markerHeight="9" refX="7.5" refY="4" orient="auto"><polygon points="0,0 8,4 0,8" fill="#B26A0F"/></marker></defs>
      <rect x="40" y="14" width="140" height="40" rx="3" fill="#fff" stroke="#54626E" stroke-width="1.3"/>
      <text x="110" y="32" text-anchor="middle" font-family="Consolas, monospace" font-size="10" fill="#141E27">ASoT Evaluation</text>
      <text x="110" y="46" text-anchor="middle" font-family="Cambria, Georgia, serif" font-size="8" fill="#54626E">governance act</text>
      <line x1="180" y1="34" x2="214" y2="34" stroke="#54626E" stroke-width="1.4" marker-end="url(#aG-a2)"/>
      <rect x="216" y="14" width="252" height="40" rx="3" fill="#f5e9d6" stroke="#B26A0F" stroke-width="1.4"/>
      <text x="342" y="31" text-anchor="middle" font-family="Consolas, monospace" font-size="10" fill="#8a5410">Source: ASoT for fact F</text>
      <text x="342" y="45" text-anchor="middle" font-family="Cambria, Georgia, serif" font-size="8.5" fill="#54626E">granted authority</text>
      <line x1="300" y1="54" x2="152" y2="94" stroke="#B26A0F" stroke-width="1.3" stroke-dasharray="4 3" marker-end="url(#aA-a2)"/>
      <text x="250" y="72" text-anchor="middle" font-family="Cambria, Georgia, serif" font-size="8.5" fill="#8a5410">grants authority</text>
      <rect x="40" y="96" width="150" height="150" rx="4" fill="#fff" stroke="#54626E" stroke-width="1.6"/>
      <text x="115" y="140" text-anchor="middle" font-family="Calibri, sans-serif" font-weight="600" font-size="12" fill="#141E27">Source endpoint</text>
      <text x="115" y="159" text-anchor="middle" font-family="Cambria, Georgia, serif" font-size="9" fill="#54626E">fact F @ SoR</text>
      <rect x="62" y="176" width="106" height="20" rx="3" fill="#f5e9d6" stroke="#B26A0F" stroke-width="1"/>
      <text x="115" y="190" text-anchor="middle" font-family="Consolas, monospace" font-size="8.5" fill="#8a5410">ASoT (granted)</text>
      <rect x="570" y="96" width="150" height="150" rx="4" fill="#fff" stroke="#54626E" stroke-width="1.6"/>
      <text x="645" y="140" text-anchor="middle" font-family="Calibri, sans-serif" font-weight="600" font-size="12" fill="#141E27">Target endpoint</text>
      <text x="645" y="159" text-anchor="middle" font-family="Cambria, Georgia, serif" font-size="9" fill="#54626E">dependent artifact</text>
      <text x="380" y="116" text-anchor="middle" font-family="Cambria, Georgia, serif" font-size="9.5" fill="#0E7C86">digital thread (assertion): should-be-same-as, persists</text>
      <line x1="192" y1="130" x2="568" y2="130" stroke="#0E7C86" stroke-width="1.7" stroke-dasharray="6 4" marker-end="url(#aT-a2)"/>
      <line x1="200" y1="168" x2="560" y2="168" stroke="#CAD4DC" stroke-width="1" stroke-dasharray="2 3"/>
      <text x="380" y="186" text-anchor="middle" font-family="Cambria, Georgia, serif" font-style="italic" font-size="9" fill="#54626E">the thread asserts the values should agree; the mechanism makes them agree</text>
      <rect x="206" y="198" width="96" height="40" rx="3" fill="#e4e7ea" stroke="#6b7785" stroke-width="1.2"/>
      <text x="254" y="222" text-anchor="middle" font-family="Calibri, sans-serif" font-size="9" fill="#3a4652">API: read</text>
      <rect x="322" y="198" width="118" height="40" rx="3" fill="#e4e7ea" stroke="#6b7785" stroke-width="1.2"/>
      <text x="381" y="222" text-anchor="middle" font-family="Calibri, sans-serif" font-size="9" fill="#3a4652">Pipeline: transform</text>
      <rect x="460" y="198" width="104" height="40" rx="3" fill="#e4e7ea" stroke="#6b7785" stroke-width="1.2"/>
      <text x="512" y="222" text-anchor="middle" font-family="Calibri, sans-serif" font-size="9" fill="#3a4652">Orchestr.: write</text>
      <g stroke="#54626E" stroke-width="1.4" marker-end="url(#aG-a2)">
        <line x1="190" y1="218" x2="204" y2="218"/>
        <line x1="302" y1="218" x2="320" y2="218"/>
        <line x1="440" y1="218" x2="458" y2="218"/>
        <line x1="564" y1="218" x2="568" y2="218"/>
      </g>
      <text x="380" y="256" text-anchor="middle" font-family="Cambria, Georgia, serif" font-size="9" fill="#54626E">the exchange: transient and swappable</text>
      <line x1="254" y1="238" x2="254" y2="284" stroke="#54626E" stroke-width="1.3" marker-end="url(#aG-a2)"/>
      <text x="264" y="262" font-family="Cambria, Georgia, serif" font-size="8.5" fill="#54626E">evidence</text>
      <rect x="174" y="286" width="170" height="32" rx="3" fill="#f2f4f6" stroke="#54626E" stroke-width="1.1"/>
      <text x="259" y="306" text-anchor="middle" font-family="Consolas, monospace" font-size="9" fill="#141E27">PROV: records the exchange</text>
    </svg>